<svg width="65" height="65" viewBox="0 0 65 65" fill="none" xmlns="http://www.w3.org/2000/svg">
<path d="M58.0357 0H6.96429C5.11724 0 3.34585 0.733735 2.03979 2.03979C0.733735 3.34585 0 5.11724 0 6.96429L0 58.0357C0 59.8828 0.733735 61.6542 2.03979 62.9602C3.34585 64.2663 5.11724 65 6.96429 65H26.8778V42.9015H17.7372V32.5H26.8778V24.5723C26.8778 15.555 32.2461 10.5741 40.4683 10.5741C44.406 10.5741 48.5237 11.2763 48.5237 11.2763V20.1268H43.9867C39.5165 20.1268 38.1222 22.9009 38.1222 25.7461V32.5H48.1015L46.5055 42.9015H38.1222V65H58.0357C59.8828 65 61.6542 64.2663 62.9602 62.9602C64.2663 61.6542 65 59.8828 65 58.0357V6.96429C65 5.11724 64.2663 3.34585 62.9602 2.03979C61.6542 0.733735 59.8828 0 58.0357 0Z" fill="#F7A941"/>
</svg>
