<svg width="100" height="101" viewBox="0 0 100 101" fill="none" xmlns="http://www.w3.org/2000/svg">
<path d="M50 100.306C22.379 100.306 0 77.9266 0 50.3057C0 22.6847 22.379 0.305664 50 0.305664C77.621 0.305664 100 22.6847 100 50.3057C100 77.9266 77.621 100.306 50 100.306ZM73.3871 41.4347H50V27.1403C50 24.9831 47.379 23.8944 45.8669 25.4266L22.8226 48.592C21.875 49.5395 21.875 51.0516 22.8226 51.9992L45.8669 75.1645C47.3992 76.6968 50 75.6081 50 73.4508V59.1766H73.3871C74.7177 59.1766 75.8064 58.0879 75.8064 56.7573V43.854C75.8064 42.5234 74.7177 41.4347 73.3871 41.4347Z" fill="#AAAAAA"/>
</svg>
