<svg width="205" height="205" viewBox="0 0 205 205" fill="none" xmlns="http://www.w3.org/2000/svg">
<path d="M101.514 132.069L122.242 129.655L128.055 143.023C128.917 145.769 130.175 147.402 132.948 146.629C133.028 146.607 137.449 146.853 135.97 140.328C134.137 134.462 132.768 128.598 130.935 122.732C130.896 122.472 130.543 120.348 128.519 119.19C126.547 118.062 124.593 118.77 124.334 118.868C121.168 119.351 114.762 119.835 111.596 120.318L114.056 103.339C114.066 101.884 114.466 100.458 115.213 99.2103L126.517 79.2634C132.122 79.8097 137.44 80.404 141.535 80.8851C142.377 88.8442 149.108 95.0461 157.291 95.0461C162.083 95.0461 166.369 92.91 169.275 89.5482L154.697 86.9774C152.747 86.6334 153.091 84.6825 153.091 84.6825L155.103 73.2679C155.447 71.317 157.398 71.661 157.398 71.661L172.358 74.2985C170.293 67.9454 164.332 63.3491 157.291 63.3491C149.761 63.3491 143.472 68.6053 141.857 75.6445C131.384 74.4104 112.808 72.4194 101.953 72.4194H101.925C88.1583 72.4242 62.5673 75.6271 56.4249 76.4226L54.6055 64.2404L48.7786 65.1106L53.0124 93.4604L58.8393 92.5893L57.1983 81.6016C60.6631 81.1548 68.5893 80.1651 77.3163 79.2906C81.3704 85.9833 85.4679 93.408 89.5126 99.9554C90.3073 101.241 90.7285 102.723 90.7285 104.234L93.2736 119.835L79.4647 118.483C78.2699 118.339 77.0494 118.611 76.0661 119.303C75.8518 119.454 75.6384 119.63 75.4342 119.835C74.7977 120.472 74.473 121.158 74.3075 121.605C72.2223 128.256 70.138 134.908 68.0529 141.56C67.4752 143.402 68.0768 145.442 69.6238 146.594C69.6809 146.637 74.8851 148.06 76.1323 143.746C77.5599 139.048 80.6071 134.352 82.0346 129.655L101.514 132.069ZM83.4165 78.7143C90.1115 78.123 96.771 77.6839 101.82 77.6817H101.863C106.935 77.6817 113.732 78.1231 120.596 78.7174C116.897 84.4229 110.868 91.0456 107.604 96.5798C107.121 97.3984 106.247 97.907 105.297 97.9226L98.7114 98.033C97.753 98.0486 96.8571 97.5612 96.3494 96.7481L83.4165 78.7143Z" fill="#F5F3F3"/>
<path d="M101.787 94.3377C105.888 94.3377 109.212 91.0127 109.212 86.9123C109.212 82.8109 105.888 79.4858 101.787 79.4858C97.6852 79.4858 94.3611 82.8109 94.3611 86.9123C94.3611 91.0127 97.6852 94.3377 101.787 94.3377Z" fill="#F5F3F3"/>
<path d="M47.3993 65.3163L41.572 66.1865L45.8059 94.5363L51.6332 93.666L47.3993 65.3163Z" fill="#F5F3F3"/>
<path d="M40.3682 69.1708L35.6689 69.8726L39.0832 92.7349L43.7824 92.0331L40.3682 69.1708Z" fill="#F5F3F3"/>
<path d="M112.377 146.241L110.659 147.702V148.393H114.265V147.624H111.892L112.919 146.769C113.802 146.049 114.215 145.621 114.215 144.836V144.822C114.215 143.931 113.545 143.333 112.569 143.333C111.678 143.333 111.208 143.711 110.73 144.373L111.357 144.865C111.735 144.365 112.049 144.116 112.505 144.116C112.961 144.116 113.311 144.401 113.311 144.893C113.311 145.342 113.061 145.656 112.377 146.241Z" fill="#F5F3F3"/>
<path d="M107.807 143.318C106.495 143.318 105.626 144.473 105.626 145.898V145.912C105.626 147.339 106.48 148.478 107.793 148.478C109.104 148.478 109.974 147.324 109.974 145.898V145.884C109.974 144.458 109.112 143.318 107.807 143.318ZM109.069 145.912C109.069 146.889 108.584 147.688 107.807 147.688C107.029 147.688 106.53 146.883 106.53 145.898V145.884C106.53 144.893 107.022 144.108 107.793 144.108C108.563 144.108 109.069 144.914 109.069 145.898V145.912Z" fill="#F5F3F3"/>
<path d="M92.0458 147.689C91.4323 147.689 90.9475 147.453 90.4702 147.039L89.9431 147.667C90.5419 148.201 91.2612 148.464 92.0246 148.464C93.0722 148.464 93.8063 147.909 93.8063 146.976V146.961C93.8063 146.134 93.2645 145.756 92.2095 145.5C91.2474 145.271 91.0193 145.1 91.0193 144.715V144.701C91.0193 144.373 91.3182 144.109 91.8314 144.109C92.2886 144.109 92.7374 144.287 93.1863 144.622L93.6563 143.96C93.1513 143.553 92.5737 143.333 91.8461 143.333C90.8546 143.333 90.1427 143.924 90.1427 144.779V144.793C90.1427 145.713 90.7415 146.028 91.8029 146.284C92.7301 146.498 92.9306 146.69 92.9306 147.047V147.061C92.9306 147.432 92.5875 147.689 92.0458 147.689Z" fill="#F5F3F3"/>
<path d="M115.085 145.898V145.912C115.085 147.339 115.94 148.478 117.252 148.478C118.564 148.478 119.433 147.324 119.433 145.898V145.884C119.433 144.458 118.571 143.318 117.267 143.318C115.954 143.318 115.085 144.473 115.085 145.898ZM118.529 145.898V145.912C118.529 146.889 118.044 147.688 117.267 147.688C116.489 147.688 115.99 146.883 115.99 145.898V145.884C115.99 144.893 116.482 144.108 117.252 144.108C118.022 144.108 118.529 144.914 118.529 145.898Z" fill="#F5F3F3"/>
<path d="M89.2009 144.187V143.404H85.5024V148.393H89.2368V147.61H86.3781V146.268H88.8808V145.486H86.3781V144.187H89.2009Z" fill="#F5F3F3"/>
<path d="M94.3774 144.216H95.9595V148.393H96.8425V144.216H98.4255V143.404H94.3774V144.216Z" fill="#F5F3F3"/>
<path d="M104.805 147.624H102.432L103.459 146.769C104.343 146.049 104.756 145.621 104.756 144.836V144.822C104.756 143.931 104.086 143.333 103.109 143.333C102.219 143.333 101.748 143.711 101.27 144.373L101.898 144.865C102.276 144.365 102.589 144.116 103.046 144.116C103.502 144.116 103.85 144.401 103.85 144.893C103.85 145.342 103.601 145.656 102.917 146.241L101.199 147.702V148.393H104.805V147.624Z" fill="#F5F3F3"/>
<path d="M56.5479 167.275L60.8139 169.525L63.2623 167.432L68.9577 170.437L68.6109 173.64L72.9827 175.945L74.5372 157.826L70.6069 155.751L56.5479 167.275ZM69.4342 166.632L66.1339 164.89L69.9897 161.605L69.4342 166.632Z" fill="#F5F3F3"/>
<path d="M61.6895 149.626L52.9 150.664L57.498 145.725L54.1242 142.583L42.7905 154.758L46.1652 157.899L49.1113 154.734L51.6095 154.527L50.4781 161.915L54.5133 165.67L56.2241 154.278L65.6897 153.351L61.6895 149.626Z" fill="#F5F3F3"/>
<path d="M39.0718 138.257L43.461 144.925L46.4982 142.927L42.108 136.258L44.2318 134.86L49.0791 142.224L52.3343 140.081L44.9787 128.906L31.0852 138.052L38.5061 149.325L41.7806 147.17L36.8688 139.706L39.0718 138.257Z" fill="#F5F3F3"/>
<path d="M42.4198 121.31L35.1167 119.342L40.1571 113.703L38.7682 109.034L22.8254 113.777L24.1123 118.104L33.2458 115.387L28.2338 121.29L28.2605 121.381L35.7145 123.602L26.5589 126.325L27.8659 130.721L43.8087 125.979L42.4198 121.31Z" fill="#F5F3F3"/>
<path d="M155.883 145.452L155.849 145.418C154.704 144.246 153.467 143.693 152.09 143.677C150.51 143.658 148.788 144.41 146.968 146.186L141.341 151.681L152.961 163.582L156.259 160.361L152.74 156.757L154.203 155.33L160.119 156.593L163.91 152.892L157.02 151.516C157.885 149.442 157.676 147.289 155.883 145.452ZM152.41 152.032L150.217 154.173L147.412 151.3L149.587 149.175C150.675 148.112 151.838 147.908 152.767 148.86L152.8 148.894C153.647 149.762 153.515 150.953 152.41 152.032Z" fill="#F5F3F3"/>
<path d="M166.821 141.74L164.551 140.398L168.614 133.526L165.485 131.675L161.421 138.548L159.233 137.253L163.72 129.665L160.365 127.682L153.557 139.198L167.874 147.663L174.743 136.045L171.369 134.049L166.821 141.74Z" fill="#F5F3F3"/>
<path d="M181.786 114.298L165.73 109.954L164.539 114.358L173.025 116.654L162.751 120.964L161.628 125.115L177.683 129.46L178.875 125.056L170.067 122.673L180.737 118.175L181.786 114.298Z" fill="#F5F3F3"/>
<path d="M106.256 164.325L101.65 164.5L102.282 181.122L106.888 180.947L106.256 164.325Z" fill="#F5F3F3"/>
<path d="M137.438 168.694L136.152 166.391L143.121 162.495L141.347 159.322L134.378 163.218L133.137 160.999L140.832 156.697L138.93 153.295L127.253 159.823L135.37 174.342L147.15 167.756L145.237 164.334L137.438 168.694Z" fill="#F5F3F3"/>
<path d="M91.7725 172.483L86.7063 162.561L82.4816 161.752L79.3516 178.087L83.8328 178.946L85.5501 169.985L90.8343 180.288L94.7774 181.043L97.9075 164.707L93.4272 163.849L91.7725 172.483Z" fill="#F5F3F3"/>
<path d="M125.537 160.676L120.228 161.971L116.264 169.885L114.664 163.328L110.186 164.421L114.129 180.58L118.607 179.487L117.583 175.287L118.782 173.086L124.332 178.091L129.688 176.784L121.109 169.094L125.537 160.676Z" fill="#F5F3F3"/>
<path d="M135.767 48.1177L137.512 44.6068L129.51 40.6305L130.684 38.2685L137.834 41.8217L139.452 38.5656L132.302 35.0134L133.433 32.736L141.328 36.6589L143.063 33.1692L131.082 27.2163L123.68 42.1114L135.767 48.1177Z" fill="#F5F3F3"/>
<path d="M147.644 57.8896L150.253 54.8055L144.101 49.6041L152.233 39.9876L148.713 37.0112L137.973 49.7127L147.644 57.8896Z" fill="#F5F3F3"/>
<path d="M111.918 34.9076L113.961 33.4552L116.757 40.3868L122.143 41.5586L117.803 30.8872L125.472 25.2608L120.132 24.0982L113.101 29.4744L114.536 22.8804L110.032 21.8999L106.494 38.1526L110.999 39.1332L111.918 34.9076Z" fill="#F5F3F3"/>
<path d="M60.6215 54.0267L55.0062 46.328L62.2459 49.0764L62.3232 49.0212L61.9231 41.2545L67.5513 48.9715L71.2572 46.2692L61.4558 32.8311L57.52 35.7017L58.1087 43.2422L51.1082 40.3779L47.1724 43.2486L56.9737 56.6868L60.6215 54.0267Z" fill="#F5F3F3"/>
<path d="M97.405 35.2806C95.4845 35.4021 93.6385 34.829 91.8963 33.6296L89.5288 36.8507C91.7078 38.5459 94.5407 39.2955 97.4813 39.1088C101.513 38.8531 104.064 36.6677 103.85 33.2773L103.846 33.2295C103.649 30.1234 101.2 29.0399 97.3535 28.4503C94.996 28.0759 94.4065 27.7807 94.3577 27.0218L94.355 26.974C94.3164 26.3577 94.8332 25.8721 95.9471 25.8013C97.4179 25.7084 99.1121 26.149 100.699 27.1432L102.793 23.7492C100.899 22.4165 98.6458 21.7974 95.8239 21.9759C91.8403 22.2288 89.5389 24.6129 89.7339 27.6951L89.7376 27.7429C89.9519 31.1342 92.7426 31.9574 96.327 32.5397C98.6375 32.9407 99.206 33.2617 99.251 33.9727L99.2538 34.0205C99.2989 34.7315 98.6624 35.2006 97.405 35.2806Z" fill="#F5F3F3"/>
<path d="M80.9378 42.6435C85.3979 41.0724 87.4997 37.8127 85.7235 32.7704L82.6606 24.0747L78.2676 25.6218L81.3784 34.4518C82.1519 36.6482 81.3719 38.0822 79.6013 38.7058C77.8528 39.3212 76.3315 38.6479 75.534 36.3843L72.4628 27.6665L68.0708 29.2136L71.1724 38.0215C72.9016 42.9295 76.4998 44.2062 80.9378 42.6435Z" fill="#F5F3F3"/>
</svg>
