<svg width="1039" height="1039" viewBox="0 0 1039 1039" fill="none" xmlns="http://www.w3.org/2000/svg">
<path d="M514.503 669.364L619.556 657.127L649.018 724.881C653.387 738.801 659.764 747.075 673.819 743.16C674.225 743.048 696.634 744.292 689.138 711.222C679.847 681.494 672.906 651.77 663.615 622.042C663.419 620.723 661.629 609.959 651.373 604.09C641.378 598.374 631.472 601.959 630.162 602.458C614.116 604.906 581.647 607.358 565.601 609.805L578.071 523.753C578.122 516.378 580.145 509.152 583.931 502.826L641.223 401.729C669.633 404.498 696.587 407.51 717.339 409.949C721.61 450.288 755.723 481.721 797.195 481.721C821.485 481.721 843.207 470.894 857.936 453.856L784.052 440.826C774.164 439.083 775.908 429.195 775.908 429.195L786.108 371.343C787.851 361.455 797.739 363.199 797.739 363.199L873.56 376.566C863.095 344.367 832.883 321.071 797.195 321.071C759.035 321.071 727.158 347.711 718.973 383.388C665.892 377.133 571.743 367.042 516.729 367.042H516.588C446.812 367.066 317.109 383.3 285.978 387.331L276.757 325.589L247.224 329.999L268.682 473.684L298.215 469.269L289.898 413.58C307.458 411.316 347.631 406.3 391.861 401.867C412.409 435.788 433.176 473.419 453.676 506.603C457.704 513.12 459.839 520.63 459.839 528.289L472.738 607.358L402.75 600.505C396.695 599.777 390.509 601.153 385.525 604.663C384.439 605.428 383.357 606.318 382.322 607.358C379.097 610.588 377.451 614.061 376.612 616.331C366.043 650.041 355.48 683.755 344.912 717.469C341.984 726.801 345.033 737.141 352.874 742.982C353.163 743.197 379.539 750.413 385.861 728.545C393.096 704.737 408.54 680.934 415.776 657.127L514.503 669.364ZM422.779 398.946C456.711 395.95 490.464 393.724 516.055 393.713H516.269C541.977 393.713 576.429 395.95 611.216 398.962C592.467 427.88 561.91 461.445 545.369 489.494C542.921 493.643 538.492 496.221 533.677 496.3L500.298 496.86C495.441 496.939 490.9 494.468 488.327 490.347L422.779 398.946Z" fill="#F7A941"/>
<path d="M515.884 478.131C536.67 478.131 553.518 461.279 553.518 440.497C553.518 419.71 536.67 402.857 515.884 402.857C495.097 402.857 478.249 419.71 478.249 440.497C478.249 461.279 495.097 478.131 515.884 478.131Z" fill="#F7A941"/>
<path d="M240.234 331.041L210.699 335.452L232.157 479.137L261.692 474.726L240.234 331.041Z" fill="#F7A941"/>
<path d="M204.598 350.578L180.781 354.135L198.085 470.008L221.902 466.451L204.598 350.578Z" fill="#F7A941"/>
<path d="M569.56 741.191L560.851 748.599V752.1H579.126V748.202H567.103L572.305 743.867C576.78 740.217 578.874 738.049 578.874 734.073V733.998C578.874 729.486 575.48 726.451 570.534 726.451C566.017 726.451 563.634 728.367 561.21 731.723L564.39 734.217C566.306 731.686 567.895 730.422 570.207 730.422C572.52 730.422 574.291 731.868 574.291 734.362C574.291 736.637 573.028 738.226 569.56 741.191Z" fill="#F7A941"/>
<path d="M546.395 726.38C539.747 726.38 535.342 732.231 535.342 739.457V739.527C535.342 746.757 539.673 752.533 546.325 752.533C552.973 752.533 557.378 746.682 557.378 739.457V739.382C557.378 732.156 553.01 726.38 546.395 726.38ZM552.791 739.527C552.791 744.477 550.334 748.528 546.395 748.528C542.456 748.528 539.925 744.445 539.925 739.457V739.382C539.925 734.361 542.419 730.385 546.325 730.385C550.227 730.385 552.791 734.468 552.791 739.457V739.527Z" fill="#F7A941"/>
<path d="M466.515 748.529C463.406 748.529 460.949 747.335 458.53 745.237L455.859 748.417C458.893 751.125 462.539 752.459 466.408 752.459C471.718 752.459 475.438 749.647 475.438 744.916V744.841C475.438 740.65 472.692 738.734 467.345 737.434C462.469 736.278 461.313 735.411 461.313 733.457V733.387C461.313 731.723 462.828 730.385 465.429 730.385C467.746 730.385 470.021 731.289 472.296 732.986L474.678 729.63C472.119 727.569 469.191 726.451 465.504 726.451C460.478 726.451 456.87 729.448 456.87 733.784V733.854C456.87 738.515 459.905 740.11 465.285 741.41C469.984 742.492 471 743.466 471 745.275V745.349C471 747.228 469.261 748.529 466.515 748.529Z" fill="#F7A941"/>
<path d="M583.284 739.457V739.527C583.284 746.757 587.619 752.533 594.267 752.533C600.914 752.533 605.32 746.682 605.32 739.457V739.382C605.32 732.156 600.952 726.38 594.341 726.38C587.689 726.38 583.284 732.231 583.284 739.457ZM600.737 739.457V739.527C600.737 744.477 598.281 748.528 594.341 748.528C590.398 748.528 587.871 744.445 587.871 739.457V739.382C587.871 734.361 590.365 730.385 594.267 730.385C598.169 730.385 600.737 734.468 600.737 739.457Z" fill="#F7A941"/>
<path d="M452.096 730.781V726.814H433.351V752.099H452.278V748.127H437.789V741.331H450.474V737.364H437.789V730.781H452.096Z" fill="#F7A941"/>
<path d="M478.333 730.925H486.351V752.099H490.826V730.925H498.849V726.814H478.333V730.925Z" fill="#F7A941"/>
<path d="M531.184 748.202H519.156L524.359 743.867C528.839 740.217 530.932 738.049 530.932 734.073V733.998C530.932 729.486 527.538 726.451 522.587 726.451C518.075 726.451 515.688 728.367 513.268 731.723L516.448 734.217C518.364 731.686 519.953 730.422 522.266 730.422C524.578 730.422 526.345 731.868 526.345 734.362C526.345 736.637 525.081 738.226 521.613 741.191L512.905 748.599V752.1H531.184V748.202Z" fill="#F7A941"/>
<path d="M286.602 847.796L308.223 859.203L320.633 848.593L349.499 863.823L347.741 880.055L369.898 891.742L377.777 799.905L357.857 789.393L286.602 847.796ZM351.913 844.537L335.187 835.712L354.729 819.061L351.913 844.537Z" fill="#F7A941"/>
<path d="M312.661 758.351L268.113 763.609L291.417 738.575L274.318 722.655L216.875 784.359L233.979 800.279L248.911 784.237L261.572 783.189L255.839 820.632L276.29 839.666L284.961 781.925L332.935 777.226L312.661 758.351Z" fill="#F7A941"/>
<path d="M198.028 700.726L220.274 734.524L235.667 724.394L213.416 690.596L224.18 683.51L248.748 720.832L265.246 709.971L227.966 653.334L157.55 699.687L195.161 756.821L211.757 745.899L186.863 708.073L198.028 700.726Z" fill="#F7A941"/>
<path d="M214.997 614.833L177.982 604.862L203.529 576.28L196.489 552.617L115.687 576.653L122.209 598.587L168.5 584.816L143.098 614.735L143.233 615.197L181.012 626.45L134.609 640.254L141.233 662.533L222.036 638.496L214.997 614.833Z" fill="#F7A941"/>
<path d="M790.061 737.195L789.888 737.023C784.084 731.079 777.814 728.278 770.835 728.198C762.831 728.1 754.1 731.914 744.878 740.916L716.358 768.765L775.25 829.084L791.967 812.758L774.131 794.493L781.543 787.258L811.528 793.659L830.744 774.9L795.822 767.926C800.209 757.418 799.146 746.505 790.061 737.195ZM772.458 770.541L761.344 781.394L747.125 766.835L758.15 756.062C763.666 750.677 769.558 749.642 774.266 754.467L774.434 754.64C778.728 759.036 778.056 765.073 772.458 770.541Z" fill="#F7A941"/>
<path d="M845.498 718.38L833.993 711.579L854.584 676.746L838.725 667.367L818.129 702.199L807.039 695.64L829.779 657.181L812.777 647.13L778.271 705.495L850.836 748.398L885.65 689.515L868.546 679.399L845.498 718.38Z" fill="#F7A941"/>
<path d="M921.346 579.296L839.97 557.279L833.933 579.6L876.942 591.235L824.87 613.08L819.178 634.119L900.549 656.141L906.591 633.821L861.95 621.742L916.027 598.946L921.346 579.296Z" fill="#F7A941"/>
<path d="M538.539 832.849L515.192 833.737L518.395 917.978L541.741 917.09L538.539 832.849Z" fill="#F7A941"/>
<path d="M696.578 854.989L690.056 843.321L725.378 823.573L716.386 807.49L681.068 827.238L674.779 815.989L713.78 794.186L704.139 776.946L644.958 810.031L686.093 883.617L745.801 850.239L736.105 832.892L696.578 854.989Z" fill="#F7A941"/>
<path d="M465.13 874.196L439.452 823.909L418.041 819.807L402.177 902.6L424.889 906.949L433.592 861.534L460.374 913.751L480.359 917.578L496.224 834.785L473.516 830.435L465.13 874.196Z" fill="#F7A941"/>
<path d="M636.259 814.353L609.351 820.916L589.259 861.026L581.152 827.797L558.454 833.335L578.439 915.233L601.137 909.695L595.944 888.405L602.023 877.249L630.152 902.618L657.298 895.994L613.817 857.017L636.259 814.353Z" fill="#F7A941"/>
<path d="M688.106 243.876L696.95 226.082L656.397 205.929L662.345 193.957L698.581 211.966L706.781 195.463L670.545 177.459L676.279 165.917L716.291 185.799L725.083 168.112L664.364 137.941L626.846 213.434L688.106 243.876Z" fill="#F7A941"/>
<path d="M748.304 293.402L761.525 277.771L730.347 251.409L771.562 202.67L753.721 187.585L699.29 251.959L748.304 293.402Z" fill="#F7A941"/>
<path d="M567.235 176.923L577.589 169.562L591.757 204.693L619.056 210.632L597.062 156.547L635.932 128.03L608.865 122.138L573.231 149.386L580.503 115.966L557.674 110.996L539.745 193.37L562.574 198.339L567.235 176.923Z" fill="#F7A941"/>
<path d="M307.248 273.823L278.788 234.804L315.481 248.733L315.872 248.453L313.844 209.089L342.37 248.202L361.152 234.505L311.476 166.397L291.528 180.946L294.512 219.163L259.031 204.647L239.083 219.196L288.759 287.305L307.248 273.823Z" fill="#F7A941"/>
<path d="M493.677 178.811C483.943 179.427 474.587 176.522 465.758 170.443L453.758 186.769C464.802 195.36 479.16 199.16 494.064 198.213C514.497 196.918 527.429 185.841 526.342 168.658L526.324 168.415C525.326 152.673 512.912 147.181 493.416 144.193C481.468 142.295 478.48 140.799 478.233 136.953L478.219 136.711C478.023 133.587 480.643 131.126 486.288 130.767C493.742 130.296 502.33 132.529 510.371 137.568L520.986 120.367C511.387 113.612 499.966 110.474 485.664 111.379C465.473 112.661 453.81 124.744 454.798 140.365L454.817 140.608C455.903 157.796 470.047 161.968 488.214 164.919C499.924 166.952 502.805 168.579 503.034 172.182L503.047 172.425C503.276 176.028 500.05 178.406 493.677 178.811Z" fill="#F7A941"/>
<path d="M410.217 216.129C432.822 208.166 443.475 191.645 434.472 166.089L418.949 122.017L396.684 129.858L412.45 174.611C416.371 185.743 412.418 193.011 403.444 196.172C394.582 199.29 386.871 195.878 382.829 184.405L367.264 140.221L345.003 148.062L360.723 192.703C369.487 217.579 387.724 224.049 410.217 216.129Z" fill="#F7A941"/>
</svg>
