<svg width="100" height="100" viewBox="0 0 100 100" fill="none" xmlns="http://www.w3.org/2000/svg">
<path d="M50 0C77.621 0 100 22.379 100 50C100 77.621 77.621 100 50 100C22.379 100 0 77.621 0 50C0 22.379 22.379 0 50 0ZM26.6129 58.871H50V73.1653C50 75.3226 52.621 76.4113 54.1331 74.879L77.1774 51.7137C78.125 50.7661 78.125 49.254 77.1774 48.3065L54.1331 25.121C52.6008 23.5887 50 24.6774 50 26.8347V41.129H26.6129C25.2823 41.129 24.1936 42.2177 24.1936 43.5484V56.4516C24.1936 57.7823 25.2823 58.871 26.6129 58.871Z" fill="#4AD23B"/>
</svg>
